<?xml version="1.0" encoding="utf-8" ?><svg xmlns="http://www.w3.org/2000/svg" xmlns:xlink="http://www.w3.org/1999/xlink" width="1024" height="1024" viewBox="0 0 1024 1024"><path transform="scale(2 2)" d="M409.562 432.018L116.818 432.034C87.2411 432.083 75.6541 424.582 75.6748 392.968L75.6777 118.341C75.676 111.34 75.2275 104.099 75.7222 97.1311C76.7368 82.8385 88.4456 72.496 102.193 70.4568C119.971 70.2052 137.784 70.4566 155.567 70.4567L337.932 70.4478C365.296 70.4143 368.323 76.2023 386.29 94.7113L422.979 132.076C435.447 144.772 436.315 146.399 436.326 163.451L436.333 384.349C436.337 407.828 437.407 425.691 409.562 432.018ZM104.202 92.2497C99.1404 93.4602 97.3856 96.9079 97.3232 101.834C97.0088 126.67 97.3553 151.553 97.3558 176.396L97.3482 381.935C97.339 391.467 93.2193 410.209 106.489 410.715C118.055 411.156 129.767 410.776 141.35 410.774L408.187 410.771C416.647 408.565 415.343 400.887 415.298 394.149L415.307 170.38L388.257 170.388C369.497 170.386 348.503 171.168 342.528 147.7C340.723 140.612 341.535 131.496 341.536 124.123L341.536 92.2497L130.196 92.2472C121.56 92.247 112.827 91.9678 104.202 92.2497ZM362.734 101.351L362.719 127.189C362.709 149.875 363.501 148.999 384.074 148.983L409.562 148.96C407.122 145.58 403.415 142.501 400.465 139.511L368.361 106.937C366.649 105.167 364.752 102.726 362.734 101.351Z"/><path transform="scale(2 2)" d="M176.881 227.46C150.935 228.606 128.978 208.491 127.852 182.544C126.726 156.598 146.858 134.656 172.805 133.55C198.725 132.445 220.637 152.55 221.762 178.469C222.887 204.387 202.798 226.316 176.881 227.46ZM172.097 156.957C159.154 158.523 149.921 170.272 151.46 183.218C152.998 196.164 164.727 205.422 177.676 203.912C190.666 202.397 199.959 190.625 198.415 177.638C196.872 164.652 185.08 155.385 172.097 156.957Z"/><path transform="scale(2 2)" d="M302.428 170.38L272.129 170.389C266.225 170.389 255.646 171.875 250.55 168.26C242.219 162.35 245.507 150.209 257.762 148.96L289.998 148.938C294.812 148.937 300.867 148.385 305.529 149.305C317.052 151.578 316.615 169.824 302.428 170.38Z"/><path transform="scale(2 2)" d="M372.85 218.553L269.288 218.566C264.832 218.57 260.201 218.832 255.769 218.441C242.746 217.291 242.386 199.047 255.696 197.523L357.587 197.516C363.252 197.518 373.259 196.294 378.218 199.529C386.765 205.105 383.055 216.92 372.85 218.553Z"/><path transform="scale(2 2)" d="M157.322 366.98C109.403 369.271 112.417 299.199 150.809 297.254C192.42 291.153 201.203 361.576 157.322 366.98ZM151.706 310.312C131.64 314.418 132.84 356.638 156.065 352.77C174.502 351.848 175.591 307.963 151.706 310.312Z"/><path transform="scale(2 2)" d="M282.74 360.072C284.928 345.347 286.981 351.074 298.32 353.204C302.329 353.957 310.564 354.806 313.519 351.411C323.191 340.298 285.651 340.571 283.19 320.32C281.541 306.75 291.603 298.755 304.141 297.254C313.258 296.767 337.918 298.262 325.115 312.786C321.661 316.704 297.8 304.429 299.37 317.3C300.105 323.319 317.884 327.384 323.863 332.124C340.1 344.999 327.592 365.344 306.889 367.711C299.528 367.905 287.081 366.928 282.74 360.072Z"/><path transform="scale(2 2)" d="M262.312 366.98C251.419 367.101 254.192 358.032 254.191 349.582L254.188 312.444C254.191 305.455 252.117 298.414 260.815 298.287C271.743 295.47 269.277 307.565 269.28 314.239L269.297 352.935C269.303 359.901 271.401 366.146 262.312 366.98Z"/><path transform="scale(2 2)" d="M239.408 366.247C230.383 366.847 213.904 366.829 204.956 366.196C197.473 365.667 199.461 359.279 199.459 353.687L199.461 315.209C199.443 308.833 196.887 298.997 204.411 298.287C219.075 295.103 214.549 308.457 214.545 318.699L214.539 352.77C219.135 352.764 237.583 352.108 240.947 353.565C244.184 354.967 245.666 364.073 239.408 366.247Z"/><path transform="scale(2 2)" d="M356.284 311.525C352.486 311.487 343.59 312.482 340.635 310.684C335.675 307.668 336.897 299.51 342.573 298.287C353.693 298.02 375.144 297.162 385.8 298.542C391.013 299.217 392.791 306.094 389.301 309.79C386.722 312.522 375.843 311.514 371.921 311.525L371.921 351.625C371.957 354.862 372.778 361.189 370.547 363.753C368.01 366.668 360.772 366.753 358.064 364.196C354.775 361.091 356.277 347.929 356.276 343.62L356.284 311.525Z"/></svg>